<svg xmlns="http://www.w3.org/2000/svg" viewBox="0 0 396 453.6"><defs><style>.cls-1{fill:#e5558c;}.cls-2{fill:#8e2478;}.cls-3{fill:#f78fb7;}.cls-4{fill:#9b6a54;}.cls-5{fill:#542a24;}.cls-6{fill:#7cedba;}.cls-7{fill:#2daa9b;}.cls-8{fill:#a4f7b1;}</style></defs><title>Artboard 1</title><g id="the_pot" data-name="the pot"><path class="cls-1" d="M299.68,425.72c2.89-5,24.32-142.69,14-140-21.82,5.83-72.2,10.39-105.5,10.39S123.61,290.32,103,284.34c-6.52-1.89,17.31,133,19.4,138.4,2.61,6.71,32.44,27.13,85.42,27.13C260.29,449.87,295.55,432.88,299.68,425.72Z"/><path class="cls-2" d="M207.86,452c-53.61,0-84.22-20.36-87.37-28.46-1.23-3.18-7.71-38.94-12.6-69.57-10.65-66.71-8.09-69.51-6.85-70.86a2.5,2.5,0,0,1,2.59-.74c20.73,6,71.56,11.73,104.59,11.73,35.33,0,84.38-4.81,105-10.31a3.2,3.2,0,0,1,3.43,1.25c3.45,4.49,2.26,29-3.52,72.95-3.85,29.2-9.76,65.62-11.6,68.82h0C296.56,435.32,259,452,207.86,452ZM104,286.8c-1.7,14.58,17.89,128.72,20.36,135.18,1.76,4.56,29.15,25.8,83.46,25.8,53.52,0,86.68-17.47,90-23.07C301,417.78,318.79,298.88,313.56,288c-23.41,6.06-74,10.27-105.34,10.27C175.7,298.25,126,292.75,104,286.8Z"/><path class="cls-1" d="M329.43,224.26c0,8.65,6.29,54.22-15.71,62.23S241.52,302,208.22,302,123.68,293.17,103,284.35c-21.77-9.3-16.75-51.44-16.75-60.09,0-17.17,54.42-31.08,121.57-31.08S329.43,207.09,329.43,224.26Z"/><path class="cls-2" d="M208.22,304.08c-33.07,0-84.58-8.65-106-17.8-20.51-8.76-18.88-43-18.19-57.69.09-1.84.16-3.32.16-4.33,0-20.77,62.88-33.17,123.67-33.17s123.66,12.4,123.66,33.17c0,1.09.11,2.88.25,5.14,1,15.44,3.2,51.58-17.33,59.06C292,296.63,241.35,304.08,208.22,304.08Zm-.36-108.81c-71.47,0-119.48,15-119.48,29,0,1.05-.07,2.6-.16,4.52-.66,13.78-2.19,46,15.65,53.65,20.62,8.81,72.31,17.46,104.35,17.46,32.75,0,82.69-7.32,104.79-15.37,17.59-6.4,15.48-40.36,14.59-54.86-.15-2.34-.26-4.18-.26-5.4C327.34,210.26,279.33,195.27,207.86,195.27Z"/><ellipse class="cls-3" cx="207.88" cy="223.95" rx="114.75" ry="24.09"/><path class="cls-2" d="M207.88,250.13C151.23,250.13,91,241,91,224s60.2-26.18,116.85-26.18S324.72,206.94,324.72,224,264.52,250.13,207.88,250.13Zm0-48.17c-72.54,0-112.66,13-112.66,22s40.12,22,112.66,22,112.65-13,112.65-22S280.42,202,207.88,202Z"/><path class="cls-4" d="M209,221.62c34.22,0,89.87,17,89.87,17-18.83,6.09-55.65,10-89.87,10s-77.16-4.37-97.65-11.61C111.36,237,174.78,221.62,209,221.62Z"/><path class="cls-5" d="M209,250.68c-32.39,0-76.57-4-98.34-11.73L104,236.6l6.85-1.66c.64-.15,64-15.41,98.14-15.41s88.2,16.39,90.48,17.09l6.37,1.94-6.33,2.05C280.89,246.64,244.52,250.68,209,250.68Zm-89.55-13.42c22.93,6.07,60.87,9.24,89.55,9.24,31.06,0,62.71-3.11,82.24-7.91-16-4.49-55.85-14.87-82.24-14.87C182.38,223.72,137.3,233.24,119.46,237.26Z"/></g><g id="Layer_2" data-name="Layer 2"><path class="cls-6" d="M158.41,218.6c.49,6.05,74.86,14.94,85.89,4.24,11.18-10.85,6-94.3.4-120.87-8.7-41.15,9-70.76,29.72-79,6.86-2.73,26.39-8.62,16.83-15.51-5.87-4.24-30.66-6.46-53.45,3-18.34,7.62-39.53,21.36-49.62,41-15.72,30.6-8,68.85-16.83,106.15C167,176.21,156.54,195.5,158.41,218.6Z"/><path class="cls-7" d="M216.18,229.93c-20.79,0-45.92-3.54-55-7-2.28-.86-4.64-2-4.82-4.18h0c-1.34-16.62,3.4-31,8-44.85,1.92-5.82,3.73-11.31,5-16.78,3.58-15.13,4.41-30.54,5.22-45.44,1.19-22,2.31-42.74,11.78-61.17,12.33-24,39.55-37.34,50.68-42,22.62-9.4,48.37-7.9,55.47-2.78,2.57,1.85,3.72,3.93,3.41,6.19-.69,5.11-8.86,8.55-17.91,11.91-1.05.39-2,.74-2.78,1.05-20.46,8.14-36.8,37.06-28.44,76.6,5.24,24.77,11.32,110.87-1,122.81C241.56,228.41,229.8,229.93,216.18,229.93ZM160.46,218c3,2.49,25.48,6.78,49,7.6,17.48.6,29.94-1,33.33-4.28,4.35-4.22,6.54-24,5.87-53-.56-24.3-3.11-52-6.06-65.95-8.84-41.8,8.9-72.57,31-81.36.81-.32,1.79-.68,2.88-1.09,4.43-1.64,14.8-5.5,15.22-8.54.1-.8-1-1.74-1.71-2.24-4.63-3.33-28.38-6.32-51.43,3.26-10.7,4.45-36.86,17.25-48.56,40-9.06,17.64-10.16,38-11.32,59.48-.82,15.09-1.66,30.7-5.33,46.19-1.34,5.64-3.18,11.22-5.12,17.12C163.86,188.6,159.3,202.42,160.46,218Zm0,.41Z"/><path class="cls-6" d="M205.88,224.64c-4.37,13.27-55.06,14.19-76.36,11s1-39.6-13.75-54.52C96.21,161.39,17.91,152,9.51,104,1.16,56.28,17.26,46.15,25.65,50.08s-4.9,41.79,16.83,49.79,69.53-8.61,106.6,8.54S226,163.7,205.88,224.64Z"/><path class="cls-7" d="M154.78,239.22a192.49,192.49,0,0,1-25.57-1.49c-13.38-2-12.1-15-10.86-27.57,1-10.48,2.1-21.31-4.07-27.54-6.33-6.39-19.34-11.75-34.41-18-29.7-12.22-66.67-27.43-72.43-60.34C.89,66.88,9.29,54.11,14.88,49.83c3.61-2.76,8-3.38,11.66-1.65,4.34,2,4.38,8.9,4.42,17.6C31,78.11,31.11,93.45,43.2,97.9c8.48,3.13,21.44,2.3,36.43,1.34,22.48-1.44,48-3.08,70.33,7.27,21.91,10.14,39.92,25.22,50.72,42.48,14,22.45,16.47,48.13,7.19,76.31h0C204.27,236.22,177.16,239.22,154.78,239.22ZM22.17,51.4a7.82,7.82,0,0,0-4.75,1.76c-12,9.19-7.52,40.94-5.85,50.45C16.93,134.24,52.71,149,81.46,160.8c15.49,6.37,28.87,11.88,35.8,18.87,7.55,7.63,6.33,20,5.26,30.9-1.32,13.4-1.67,21.69,7.31,23,22.54,3.35,70.39,1.55,74.06-9.6h0c23.32-70.8-36.73-104.91-55.69-113.68-21.4-9.9-46.32-8.3-68.3-6.89-15.47,1-28.83,1.84-38.15-1.59-14.81-5.45-14.9-23.12-15-36,0-6-.07-12.92-2-13.82A6,6,0,0,0,22.17,51.4Z"/><path class="cls-6" d="M230.52,211.44c-1.72,11.05-8.59,23.26,14.63,28.31,10.08,2.19,31.29,3.53,43.65-.42,6.69-2.13,12.61-14.77,22.21-18.57,11.39-4.51,25.73,1.15,21.22,19.4-5,20.25-26.2-.85-29.64,12.52-4.28,16.62,57.11,29.11,80.25-13.81,23.72-44-2.41-91.13-28.92-102.24C332.35,127.58,248.52,96.18,230.52,211.44Z"/><path class="cls-7" d="M332,270.24a55,55,0,0,1-19.7-3.4c-8.8-3.45-13.17-8.94-11.69-14.69,2-7.87,9-6.59,14.69-5.56,7.85,1.45,12.77,1.88,14.95-6.93,1.7-6.86.67-12.17-3-15.35s-9.77-3.85-15.46-1.6c-4.65,1.84-8.44,6-12.09,10.12-3.39,3.77-6.58,7.33-10.25,8.5-12.4,4-33.95,2.81-44.74.46-8.38-1.82-13.77-4.75-16.46-8.95-3.33-5.21-2-11.18-.74-17,.35-1.58.71-3.22.95-4.77h0c6.2-39.68,20.83-66.22,43.49-78.88,21.58-12,50.21-11.2,82.79,2.46,14.72,6.18,28.06,21.91,34.83,41.06a78.43,78.43,0,0,1-4.88,64.11C372.65,262.19,350.58,270.24,332,270.24ZM308.88,250c-2.43,0-3.65.84-4.26,3.21-1.06,4.12,4,7.73,9.15,9.74,17.9,7,51.62,3.88,67.23-25.06a74.33,74.33,0,0,0,4.61-60.74c-6.29-17.8-19-32.94-32.5-38.58-31.35-13.16-58.72-14.08-79.13-2.68-21.47,12-35.4,37.53-41.39,75.88-.26,1.68-.64,3.38-1,5-1.14,5.17-2.22,10.05.18,13.79,2.06,3.22,6.58,5.55,13.82,7.12,10.34,2.25,30.87,3.37,42.58-.36,2.58-.83,5.41-4,8.41-7.31,3.79-4.22,8.09-9,13.66-11.22,7.14-2.82,14.89-1.9,19.75,2.35s6.34,11.14,4.27,19.51c-3.23,13.08-12.79,11.32-19.77,10A34.22,34.22,0,0,0,308.88,250Z"/><path class="cls-7" d="M137.14,238.17l-2.29-3.51c7.77-5.06,8.62-27.21,9.3-45,.22-5.66.42-11,.82-15.67,1.59-18.72-20.18-43.78-41.26-56.26-12.37-7.32-30.59-4.93-46.66-2.82-10.55,1.38-20.53,2.69-28.17,1.27-16.36-3-17.36-31.62-17.9-47,0-.37,0-.73,0-1.1A76.25,76.25,0,0,0,9.31,79.36l-4.18-.24c0-.2,1.46-19.86,6.2-20.72a2.71,2.71,0,0,1,3,1.87c.53,1.2.63,3.42.82,8.78.46,13.17,1.42,40.58,14.48,43,7,1.3,16.64,0,26.85-1.31,16.75-2.2,35.72-4.69,49.34,3.36,22.66,13.42,45.06,39.61,43.3,60.23-.39,4.56-.59,9.86-.81,15.47C147.57,209.55,146.71,231.93,137.14,238.17Z"/><path class="cls-7" d="M209.88,171.05l-3.71-2c12-22.92,6-43.58,1.09-60.19-2.24-7.64-4.18-14.23-3.93-19.78.7-15.68,10.07-36.67,23.31-52.24,17.19-20.2,56.42-31.22,65.09-26.5a4.08,4.08,0,0,1,2.1,5l-4-1.22h0c.08,0-.68-.76-4.15-.71-13.46.09-42.59,10.56-55.84,26.14-12.68,14.91-21.65,34.88-22.32,49.7-.21,4.86,1.63,11.15,3.76,18.43C216.09,124.15,222.68,146.63,209.88,171.05Z"/><path class="cls-7" d="M321.93,259.15a50.69,50.69,0,0,1-20.17-4.55l1.66-3.84c34,14.71,50.17-13.73,51.91-17,4.78-9.08,10.85-33.83-2.29-48.24C340.43,171.67,311,169,278,178.76c-7.16,2.11-12.19,6.42-14.95,12.79-7.43,17.19,3.06,44.66,5.43,49.35l-3.73,1.89c-.16-.3-14.59-32-5.54-52.9,3.27-7.57,9.19-12.67,17.6-15.15,35.07-10.34,65.48-7.3,79.38,7.94,14.62,16,8.11,43.12,2.89,53a47.28,47.28,0,0,1-18.7,18.86A38.71,38.71,0,0,1,321.93,259.15Z"/></g><g id="Layer_4" data-name="Layer 4"><ellipse class="cls-8" cx="76" cy="125.1" rx="13" ry="8.33"/><path class="cls-7" d="M76,135.53c-8.46,0-15.09-4.58-15.09-10.43S67.54,114.68,76,114.68s15.09,4.58,15.09,10.42S84.46,135.53,76,135.53Zm0-16.66c-5.91,0-10.9,2.85-10.9,6.23s5,6.24,10.9,6.24,10.9-2.86,10.9-6.24S81.91,118.87,76,118.87Z"/><ellipse class="cls-8" cx="110.94" cy="140.28" rx="7.01" ry="11.16" transform="translate(-67.78 147.03) rotate(-53.82)"/><path class="cls-7" d="M115.07,151.06a16.51,16.51,0,0,1-9.5-3.44c-6-4.39-8.35-11.05-5.33-15.17,1.54-2.11,4.17-3.15,7.4-2.92a18.32,18.32,0,0,1,14.54,10.64c1.19,3,1,5.82-.54,7.94h0A7.85,7.85,0,0,1,115.07,151.06Zm-8.28-17.37a3.86,3.86,0,0,0-3.18,1.24c-1.37,1.87.11,6.16,4.43,9.31s8.85,3.27,10.22,1.39h0c.89-1.22.4-3,0-3.91a14.1,14.1,0,0,0-11-8Z"/><ellipse class="cls-8" cx="132.96" cy="167.81" rx="6.15" ry="11.16" transform="translate(-29.36 28.2) rotate(-10.91)"/><path class="cls-7" d="M134.4,180.93c-2,0-4.08-1.11-5.82-3.2a18.84,18.84,0,0,1-3.71-8.36c-1.43-7.42,1-13.68,5.58-14.57s9.2,4.15,10.61,11.45-1,13.69-5.59,14.58h0A5.46,5.46,0,0,1,134.4,180.93Zm-2.91-22.05a.88.88,0,0,0-.24,0c-1.63.31-3.32,4.23-2.27,9.67a14.75,14.75,0,0,0,2.82,6.47c1,1.2,2.09,1.82,2.88,1.67,1.62-.31,3.31-4.24,2.27-9.67C136,161.87,133.15,158.88,131.49,158.88Z"/><ellipse class="cls-8" cx="132.28" cy="209.23" rx="11.16" ry="4.53" transform="translate(-92.48 312.97) rotate(-82.47)"/><path class="cls-7" d="M131.11,222.41l-.56,0c-1.22-.16-3.42-1-4.5-5.21a23.68,23.68,0,0,1-.33-8.8c.84-6.33,3.81-12.87,8.3-12.28s5.66,7.68,4.82,14C138,216.16,135.3,222.41,131.11,222.41Zm2.31-22.18c-.61.15-2.8,3-3.55,8.68s.56,8.86,1.23,9.3c.75-.26,2.86-3.13,3.59-8.66S134.07,200.54,133.42,200.23Z"/><ellipse class="cls-8" cx="36.05" cy="123.6" rx="9.05" ry="5.1"/><path class="cls-7" d="M36.05,130.79c-6.36,0-11.15-3.09-11.15-7.19s4.79-7.19,11.15-7.19S47.2,119.5,47.2,123.6,42.4,130.79,36.05,130.79Zm0-10.19c-4.19,0-7,1.8-7,3s2.77,3,7,3,7-1.8,7-3S40.23,120.6,36.05,120.6Z"/><ellipse class="cls-8" cx="14.12" cy="113.67" rx="3.16" ry="7.7" transform="translate(-45.55 15.9) rotate(-24.32)"/><path class="cls-7" d="M16.7,122.9a5.6,5.6,0,0,1-3.81-1.83,16.86,16.86,0,0,1-3.56-5.24,16.76,16.76,0,0,1-1.58-6.13c-.12-3.34,1.41-4.54,2.33-5,3.29-1.48,6.88,2.47,8.82,6.77a16.94,16.94,0,0,1,1.59,6.13c.11,3.34-1.42,4.54-2.34,5A3.65,3.65,0,0,1,16.7,122.9Zm-4.76-14a11.16,11.16,0,0,0,1.21,5.25,11.19,11.19,0,0,0,3.14,4.37,11.24,11.24,0,0,0-1.2-5.25A11.18,11.18,0,0,0,11.94,108.86Z"/><ellipse class="cls-8" cx="7.4" cy="89.33" rx="3.46" ry="6.75" transform="translate(-9.29 1.26) rotate(-5.99)"/><path class="cls-7" d="M7.91,98.15a5.19,5.19,0,0,1-4.2-2.67,13.8,13.8,0,0,1-1.2-11.4c.81-2.07,2.25-3.37,4-3.55s3.39.79,4.61,2.65a12.83,12.83,0,0,1,1.83,5.57,12.64,12.64,0,0,1-.64,5.83c-.8,2.07-2.24,3.37-4,3.55h0ZM6.83,84.69c-.23.2-1.09,1.94-.79,4.78.28,2.68,1.36,4.19,1.84,4.46.42-.36,1.16-2.06.88-4.74C8.46,86.34,7.26,84.82,6.83,84.69Z"/><ellipse class="cls-8" cx="116.17" cy="177.23" rx="3.4" ry="9.78" transform="translate(-73.05 81.83) rotate(-30)"/><path class="cls-7" d="M120.41,188c-3,0-6.53-3.71-9-8-3-5.12-4.46-11.13-1.17-13s7.74,2.42,10.69,7.54,4.47,11.13,1.18,13h0A3.36,3.36,0,0,1,120.41,188Zm-7.86-17a16.58,16.58,0,0,0,2.49,6.93,16.82,16.82,0,0,0,4.76,5.63A20.75,20.75,0,0,0,112.55,171Z"/><ellipse class="cls-8" cx="96.37" cy="160.21" rx="5.44" ry="9.47" transform="translate(-83.95 209.6) rotate(-74.29)"/><path class="cls-7" d="M99,168.13a17.44,17.44,0,0,1-4.67-.67c-6.25-1.75-10.24-6.32-9.1-10.38s6.93-5.89,13.18-4.13,10.23,6.32,9.09,10.39h0C106.65,166.35,103.24,168.13,99,168.13Zm-5.31-11.67c-2.47,0-4.17.83-4.43,1.75-.36,1.31,1.86,4,6.2,5.22s7.63.09,8-1.23-1.86-4-6.2-5.22A13.11,13.11,0,0,0,93.69,156.46Z"/><ellipse class="cls-8" cx="68.59" cy="147.82" rx="12.96" ry="5.74" transform="translate(-15.06 7.97) rotate(-5.99)"/><path class="cls-7" d="M66.19,155.78a22.7,22.7,0,0,1-6.93-1c-4.57-1.47-5.49-4-5.64-5.41s.23-4.07,4.39-6.46a25.52,25.52,0,0,1,9.77-2.9c7.43-.77,15.25,1.11,15.79,6.22.14,1.39-.23,4.07-4.4,6.46a25.25,25.25,0,0,1-9.76,2.9A32.18,32.18,0,0,1,66.19,155.78ZM71,144.05a25.68,25.68,0,0,0-2.82.15,21.61,21.61,0,0,0-8.11,2.36c-1.66.95-2.37,1.91-2.32,2.4s.94,1.27,2.76,1.86a21.58,21.58,0,0,0,8.43.62,21.25,21.25,0,0,0,8.12-2.36c1.66-1,2.36-1.91,2.31-2.39h0C79.29,145.6,76.11,144.05,71,144.05Z"/><ellipse class="cls-8" cx="34.41" cy="139.44" rx="3.24" ry="9.97" transform="translate(-105.45 106.78) rotate(-62.99)"/><path class="cls-7" d="M41.1,146.9a12,12,0,0,1-1.78-.15A25.56,25.56,0,0,1,32,144.19a25.85,25.85,0,0,1-6.38-4.43c-2.69-2.68-2.54-4.63-1.95-5.79s2.08-2.43,5.83-1.83a26,26,0,0,1,7.34,2.55c5,2.53,10.11,6.73,8.32,10.23C44.66,145.88,43.56,146.9,41.1,146.9ZM28,136.17a19.41,19.41,0,0,0,5.91,4.29,19.6,19.6,0,0,0,6.94,2.26,19.61,19.61,0,0,0-5.9-4.3A19.41,19.41,0,0,0,28,136.17Z"/><ellipse class="cls-8" cx="120.55" cy="204.99" rx="3.24" ry="11.81"/><path class="cls-7" d="M120.55,218.9c-5.08,0-5.33-11.58-5.33-13.91s.25-13.9,5.33-13.9,5.33,11.58,5.33,13.9S125.62,218.9,120.55,218.9Zm0-22.61a33.48,33.48,0,0,0,0,17.4,33.77,33.77,0,0,0,0-17.4Z"/><ellipse class="cls-8" cx="7.86" cy="69.25" rx="5.43" ry="2.01" transform="translate(-61.81 71.31) rotate(-85.22)"/><path class="cls-7" d="M7.49,76.76H7.23c-2.48-.21-3.84-3.29-3.46-7.84S6,61.56,8.48,61.75,12.33,65,12,69.59C11.58,74,9.84,76.76,7.49,76.76Z"/></g><g id="Layer_5" data-name="Layer 5"><ellipse class="cls-8" cx="222.16" cy="109.44" rx="6.47" ry="11.81" transform="translate(-22.71 72.39) rotate(-17.62)"/><path class="cls-7" d="M224.6,123a8.45,8.45,0,0,1-5.72-2.67,21.37,21.37,0,0,1-5.67-17.83c.65-3.29,2.33-5.51,4.74-6.28s5.07.09,7.48,2.39a21.4,21.4,0,0,1,5.67,17.84c-.64,3.28-2.32,5.51-4.73,6.27h0A5.65,5.65,0,0,1,224.6,123Zm-4.91-22.86a1.41,1.41,0,0,0-.47.07c-.86.27-1.57,1.43-1.9,3.09a17.24,17.24,0,0,0,4.45,14c1.22,1.17,2.46,1.71,3.33,1.43h0c.86-.27,1.57-1.42,1.89-3.09a15.75,15.75,0,0,0-.66-7.49,16,16,0,0,0-3.78-6.51A4.61,4.61,0,0,0,219.69,100.11Z"/><ellipse class="cls-8" cx="220.73" cy="77.2" rx="11.81" ry="5.27" transform="translate(125.4 290.72) rotate(-85.22)"/><path class="cls-7" d="M220,91.07l-.41,0h0c-4.82-.4-6.75-7.58-6.18-14.47s3.67-13.66,8.5-13.24,6.76,7.59,6.18,14.47C227.51,84.5,224.56,91.07,220,91.07Zm-.06-4.19c.84.08,3.45-3.13,4-9.42s-1.44-9.87-2.36-9.95-3.45,3.13-4,9.42,1.44,9.87,2.36,9.95Z"/><ellipse class="cls-8" cx="229.19" cy="143.11" rx="7.43" ry="11.81" transform="translate(-18.37 34.84) rotate(-8.36)"/><path class="cls-7" d="M230.2,156.94c-4.9,0-9.38-5.22-10.44-12.45-1.13-7.71,2.12-14.36,7.4-15.14,2.69-.39,5.4.8,7.6,3.37a18,18,0,0,1,3.85,9c1.13,7.72-2.12,14.37-7.4,15.15h0A7,7,0,0,1,230.2,156.94Zm-2-23.48-.4,0c-2.49.37-4.7,4.73-3.87,10.4s4.18,9.22,6.7,8.83h0c2.5-.36,4.7-4.72,3.87-10.39a14,14,0,0,0-2.89-6.89A5,5,0,0,0,228.17,133.46Z"/><ellipse class="cls-8" cx="224.28" cy="174.01" rx="11.81" ry="8" transform="translate(-1.69 345.83) rotate(-75.05)"/><path class="cls-7" d="M222.7,187.71a8,8,0,0,1-2-.26h0c-2.76-.74-4.89-2.92-6-6.14a17.12,17.12,0,0,1-.16-9.9c2-7.53,7.88-12.28,13.34-10.83,2.75.73,4.89,2.91,6,6.14a17.12,17.12,0,0,1,.15,9.9C232.26,183.23,227.53,187.71,222.7,187.71Zm-.93-4.31c3.09.83,6.85-2.77,8.22-7.86a13.14,13.14,0,0,0-.07-7.45c-.37-1.08-1.28-3-3.13-3.47-3.1-.82-6.85,2.78-8.21,7.87a13.06,13.06,0,0,0,.06,7.45c.38,1.08,1.28,3,3.13,3.46Z"/><ellipse class="cls-8" cx="248.67" cy="139.82" rx="3.24" ry="11.81" transform="translate(-17.68 37.64) rotate(-8.36)"/><path class="cls-7" d="M250.24,153.61c-4.68,0-6.51-10.79-6.84-13a35,35,0,0,1-.28-9c.41-3.41,1.6-5.29,3.53-5.57,5.09-.77,7,10.68,7.3,13s1.77,13.79-3.25,14.53h0A2.45,2.45,0,0,1,250.24,153.61Zm-2.83-22.4a27.6,27.6,0,0,0,.13,8.77,28,28,0,0,0,2.4,8.44,27.91,27.91,0,0,0-.13-8.77A28,28,0,0,0,247.41,131.21Z"/><ellipse class="cls-8" cx="243.85" cy="107.01" rx="4.28" ry="11.81" transform="matrix(0.99, -0.15, 0.15, 0.99, -12.97, 36.59)"/><path class="cls-7" d="M245.32,120.81c-1.43,0-3.32-.81-5.09-4.11a27.56,27.56,0,0,1-2.68-8.76c-1-6.63-.05-14,4.28-14.69s7.35,6.21,8.33,12.83a27.7,27.7,0,0,1,0,9.17c-.85,4.17-2.77,5.3-4.24,5.52A4.74,4.74,0,0,1,245.32,120.81Zm-2.87-23.32c-.64.84-1.58,4.27-.76,9.84s2.7,8.58,3.56,9.2c.65-.84,1.58-4.27.77-9.84S243.32,98.11,242.45,97.49Z"/><ellipse class="cls-8" cx="218.05" cy="206.77" rx="11.81" ry="6.85" transform="translate(-37.96 364.11) rotate(-75.05)"/><path class="cls-7" d="M216.08,220.41a6.32,6.32,0,0,1-1.62-.21h0c-4.85-1.29-7.07-8.21-5.06-15.74s7.38-12.41,12.23-11.13,7.07,8.21,5.06,15.74a19,19,0,0,1-4.64,8.5A8.58,8.58,0,0,1,216.08,220.41Zm4-23.1c-2.17,0-5.27,3.26-6.59,8.23-1.44,5.37-.08,10,2.09,10.62h0c1,.26,2.3-.3,3.56-1.56a15.06,15.06,0,0,0,3.55-6.61c1.43-5.37.07-10-2.1-10.61A1.7,1.7,0,0,0,220,197.31Z"/><ellipse class="cls-8" cx="241.59" cy="77.66" rx="10.61" ry="3.24" transform="translate(128.21 304.7) rotate(-81.28)"/><path class="cls-7" d="M240.16,90.26a2.7,2.7,0,0,1-.49,0h0c-3.89-.6-4.23-7.57-3.34-13.36s3.28-12.36,7.19-11.75,4.23,7.57,3.34,13.36C246,84,243.76,90.26,240.16,90.26ZM242.77,70a22.26,22.26,0,0,0-2.31,7.46,22.53,22.53,0,0,0,0,7.81,22.08,22.08,0,0,0,2.3-7.46A22.61,22.61,0,0,0,242.77,70Z"/><ellipse class="cls-8" cx="231.63" cy="49.31" rx="9.66" ry="5.03" transform="matrix(0.65, -0.76, 0.76, 0.65, 43.58, 193.26)"/><path class="cls-7" d="M227.44,59.45A5.2,5.2,0,0,1,224,58.24h0c-1.64-1.4-2.19-3.72-1.54-6.52a17.24,17.24,0,0,1,3.77-7c4.36-5.09,10-6.93,13.05-4.3,1.65,1.41,2.2,3.72,1.55,6.53a18.62,18.62,0,0,1-10.14,11.84A8.62,8.62,0,0,1,227.44,59.45Zm8.38-16.09c-1.34,0-4,1.18-6.42,4a13.18,13.18,0,0,0-2.87,5.26c-.3,1.29-.12,2.14.19,2.4h0c.3.26,1.16.31,2.39-.19a13,13,0,0,0,4.75-3.65A13.15,13.15,0,0,0,236.74,46c.3-1.29.12-2.13-.19-2.4A1.12,1.12,0,0,0,235.82,43.36Z"/><ellipse class="cls-8" cx="246.74" cy="54.04" rx="7.48" ry="3.18" transform="translate(94.16 255.34) rotate(-65.19)"/><path class="cls-7" d="M244.24,63.05a3.54,3.54,0,0,1-1.51-.32c-2.82-1.3-3.14-5.79-.78-10.9s6-7.79,8.81-6.47c.91.42,2.44,1.62,2.34,4.89A17.54,17.54,0,0,1,248,61.34,5.6,5.6,0,0,1,244.24,63.05Zm4.64-13.64a10.16,10.16,0,0,0-3.13,4.18,10.08,10.08,0,0,0-1.15,5.09,10.06,10.06,0,0,0,3.13-4.18A10,10,0,0,0,248.88,49.41Z"/><ellipse class="cls-8" cx="249.56" cy="30.91" rx="6.55" ry="3.24" transform="translate(26.14 146.33) rotate(-34.38)"/><path class="cls-7" d="M246.26,37.58a4.42,4.42,0,0,1-3.83-1.78c-1-1.39-.88-3.28.19-5.18a13.87,13.87,0,0,1,9.17-6.28c2.17-.3,4,.31,4.9,1.7s.88,3.27-.19,5.17a12.79,12.79,0,0,1-3.93,4.1A11.58,11.58,0,0,1,246.26,37.58ZM246,33.37a7.05,7.05,0,0,0,4.24-1.51,7,7,0,0,0,2.94-3.4A7.12,7.12,0,0,0,248.91,30,7,7,0,0,0,246,33.37Z"/><ellipse class="cls-8" cx="257.3" cy="35.71" rx="5.48" ry="1.97" transform="translate(38.72 176.08) rotate(-40.61)"/><path class="cls-7" d="M253.92,41.69a3,3,0,0,1-2.36-1h0c-2-2.28.46-5.75,3.11-8s6.44-4.12,8.39-1.85-.45,5.75-3.1,8C258.16,40.34,255.84,41.69,253.92,41.69Z"/><ellipse class="cls-8" cx="268.88" cy="21.22" rx="4.17" ry="2.3" transform="translate(16.97 117.61) rotate(-25.45)"/><path class="cls-7" d="M267.16,26.06h-.37a4,4,0,0,1-3.56-2.13h0a4,4,0,0,1,.6-4.11A8.3,8.3,0,0,1,267,17.26a7.36,7.36,0,0,1,5.41-.58,3.62,3.62,0,0,1,2.13,1.86,4,4,0,0,1-.59,4.11,9,9,0,0,1-6.78,3.41Zm3-5.45a4.53,4.53,0,0,0-1.38.43,4.6,4.6,0,0,0-1.21.8,4.83,4.83,0,0,0,1.38-.43A5,5,0,0,0,270.17,20.61Z"/></g><g id="Layer_6" data-name="Layer 6"><ellipse class="cls-8" cx="273.3" cy="224.78" rx="10.95" ry="6.47" transform="translate(-17.08 427.01) rotate(-74.29)"/><path class="cls-7" d="M271.39,237.56a6,6,0,0,1-1.62-.22c-4.62-1.31-6.69-7.84-4.71-14.88a17.53,17.53,0,0,1,4.49-7.89c2.29-2.19,4.88-3,7.28-2.35,4.63,1.3,6.7,7.84,4.72,14.88C279.8,233.32,275.55,237.56,271.39,237.56Zm3.81-21.38a4.33,4.33,0,0,0-2.76,1.42,13.49,13.49,0,0,0-3.35,6c-1.38,4.88-.18,9.15,1.81,9.72s5.24-2.47,6.62-7.35.17-9.15-1.82-9.71A2.08,2.08,0,0,0,275.2,216.18Z"/><ellipse class="cls-8" cx="280.05" cy="196.05" rx="13.54" ry="7.73" transform="translate(-52.7 274.41) rotate(-48.24)"/><path class="cls-7" d="M274.62,209.47a7.31,7.31,0,0,1-5-1.75c-2.12-1.9-2.87-5-2.09-8.6a23.43,23.43,0,0,1,14.14-15.84c3.54-1.18,6.65-.79,8.77,1.11s2.87,5,2.1,8.6a21.86,21.86,0,0,1-5.17,9.61C283.44,207,278.61,209.47,274.62,209.47Zm10.85-22.66a8,8,0,0,0-2.45.44A19.34,19.34,0,0,0,271.65,200c-.45,2.08-.16,3.76.78,4.6,2,1.78,7.34.25,11.83-4.78a17.73,17.73,0,0,0,4.2-7.69c.45-2.09.16-3.76-.78-4.61h0A3.26,3.26,0,0,0,285.47,186.81Z"/><ellipse class="cls-8" cx="310.67" cy="185.14" rx="11.81" ry="6.47"/><path class="cls-7" d="M310.67,193.71c-7.8,0-13.91-3.76-13.91-8.57s6.11-8.56,13.91-8.56,13.9,3.76,13.9,8.56S318.46,193.71,310.67,193.71Zm0-13c-6,0-9.72,2.55-9.72,4.38s3.7,4.38,9.72,4.38,9.71-2.55,9.71-4.38S316.69,180.76,310.67,180.76Z"/><ellipse class="cls-8" cx="341.45" cy="196.05" rx="6.47" ry="11.81" transform="translate(-18.35 355.95) rotate(-53.82)"/><path class="cls-7" d="M346.81,206.86a12.79,12.79,0,0,1-1.6-.11,19.81,19.81,0,0,1-8.82-3.78c-6.29-4.61-9-11.25-6.17-15.12,1.49-2,4.14-2.94,7.46-2.5a19.88,19.88,0,0,1,8.82,3.79,19.64,19.64,0,0,1,6.28,7.26c1.42,3,1.38,5.82-.11,7.86A6.93,6.93,0,0,1,346.81,206.86Zm-10.7-17.43a3,3,0,0,0-2.51.89c-1.08,1.47.4,5.71,5.26,9.27a15.89,15.89,0,0,0,6.9,3c1.67.22,3-.08,3.53-.81h0c.53-.73.42-2.08-.3-3.61a17.3,17.3,0,0,0-11.86-8.68A9.37,9.37,0,0,0,336.11,189.43Z"/><ellipse class="cls-8" cx="349.08" cy="222.48" rx="9.28" ry="4.98" transform="translate(82.8 539.42) rotate(-82.47)"/><path class="cls-7" d="M348.24,233.8a4.49,4.49,0,0,1-.64,0c-4-.53-6.37-5.78-5.52-12.21s4.5-10.88,8.49-10.35,6.37,5.77,5.52,12.2C355.29,229.49,352,233.8,348.24,233.8ZM350,215.34c-1,0-3.15,2.45-3.72,6.76s.91,7.37,1.91,7.51,3.22-2.33,3.8-6.76-.91-7.37-1.91-7.5Z"/><ellipse class="cls-8" cx="337.92" cy="244.17" rx="8.29" ry="2.23" transform="translate(-69.27 333.65) rotate(-48.24)"/><path class="cls-7" d="M332.91,252.63a2.75,2.75,0,0,1-1.9-.72c-2.91-2.59,1.61-8.29,3.69-10.62a25.72,25.72,0,0,1,4.8-4.29c2.29-1.5,4.08-1.69,5.33-.57s1.27,2.92,0,5.36a25.67,25.67,0,0,1-3.72,5.26,26.21,26.21,0,0,1-4.81,4.3A6.62,6.62,0,0,1,332.91,252.63Zm6.84-10.5a25.56,25.56,0,0,0-1.93,2,26.43,26.43,0,0,0-1.72,2.13,23.84,23.84,0,0,0,1.92-2A27.16,27.16,0,0,0,339.75,242.13Z"/><ellipse class="cls-8" cx="316.49" cy="250.68" rx="6.57" ry="2.09"/><ellipse class="cls-7" cx="316.49" cy="250.68" rx="8.67" ry="4.18"/><ellipse class="cls-8" cx="289.51" cy="229.73" rx="6.67" ry="4.21" transform="translate(-59.13 352.36) rotate(-57.81)"/><path class="cls-7" d="M287.53,237.89a5,5,0,0,1-2.68-.75,5.7,5.7,0,0,1-2.46-5,11,11,0,0,1,1.78-5.76c2.62-4.16,7-5.94,10-4.05h0c3,1.88,3.29,6.61.67,10.77a11.05,11.05,0,0,1-4.42,4.1A6.7,6.7,0,0,1,287.53,237.89Zm4-12.14c-.92,0-2.54.92-3.76,2.85a6.94,6.94,0,0,0-1.15,3.53,1.24,1.24,0,0,0,2.05,1.29,6.94,6.94,0,0,0,2.69-2.56c1.46-2.33,1.35-4.55.64-5h0A.84.84,0,0,0,291.48,225.75Z"/><ellipse class="cls-8" cx="300.59" cy="214.39" rx="6.84" ry="3.85" transform="translate(-68.01 193.16) rotate(-32.2)"/><path class="cls-7" d="M297.66,221.38a5.22,5.22,0,0,1-4.63-2.23c-1.8-2.87.09-7.08,4.4-9.79s8.92-2.6,10.72.27h0c1.81,2.87-.08,7.08-4.39,9.79A11.73,11.73,0,0,1,297.66,221.38Zm5.91-9.78a7.62,7.62,0,0,0-3.91,1.3c-2.6,1.63-3.32,3.65-3.08,4s2.36.59,4.95-1,3.31-3.65,3.08-4C304.52,211.72,304.15,211.6,303.57,211.6Z"/><ellipse class="cls-8" cx="320.19" cy="209.23" rx="4.42" ry="7.59" transform="translate(58.82 488.49) rotate(-80.06)"/><path class="cls-7" d="M321.61,215.88a14.92,14.92,0,0,1-2.55-.23c-5.44-1-9.06-4.43-8.42-8.09s5.23-5.7,10.67-4.74,9.06,4.43,8.42,8.09a5.87,5.87,0,0,1-4.07,4.29A11.67,11.67,0,0,1,321.61,215.88Zm-2.85-9.1c-2.35,0-3.88.85-4,1.51s1.65,2.65,5,3.24a8.94,8.94,0,0,0,4.43-.25c.78-.29,1.33-.72,1.39-1.1.15-.8-1.65-2.65-5-3.24A11.06,11.06,0,0,0,318.76,206.78Z"/><ellipse class="cls-8" cx="334.64" cy="224.78" rx="2.54" ry="6.8" transform="translate(-60.66 145.75) rotate(-22.58)"/><path class="cls-7" d="M336.85,233.22a5,5,0,0,1-3.56-1.88,16.65,16.65,0,0,1-2.94-4.78c-1.69-4.09-2.09-8.76.87-10,.86-.36,2.63-.63,4.76,1.65a16.65,16.65,0,0,1,2.94,4.78,16.13,16.13,0,0,1,1.31,5.45c.11,3.11-1.32,4.18-2.18,4.54A3.24,3.24,0,0,1,336.85,233.22Zm-3.59-11.74a13.09,13.09,0,0,0,1,3.47,12.91,12.91,0,0,0,1.79,3.13,14.47,14.47,0,0,0-2.75-6.6Z"/></g><g id="Layer_3" data-name="Layer 3"><path class="cls-3" d="M138,371.27c6.58,21.61,62.81,72.77,71,74.72,8.59-2.59,64.91-57.11,71-75.73-8.88-9.66-60.27-56.63-71-64.07C197.86,314.28,146.08,361.85,138,371.27Z"/><path class="cls-2" d="M209.08,448.15l-.55-.13c-10-2.34-65.92-54.28-72.57-76.14l-.34-1.11.75-.87c8.5-9.85,60.56-57.53,71.41-65.4l1.2-.87,1.22.84c10.94,7.56,62.69,54.91,71.39,64.38l.84.9-.39,1.17c-6.13,18.6-62.2,74-72.43,77.07Zm-68.75-76.4c7.83,21.49,60,68.41,68.63,72,9.36-4.3,61.11-54.53,68.68-73-10.38-10.8-56-52.57-68.61-62C196.48,318.5,150.39,360.72,140.33,371.75Z"/><path class="cls-2" d="M249.82,411.36c-14.65-5.93-76.46-64-79.37-72.23l4-1.39c2.55,7.23,64.07,64.51,77,69.74Z"/><path class="cls-2" d="M167.81,411.33l-1.68-3.83c14.89-6.53,75.18-64,77-69.49l4.12.76C246,346.37,181.41,405.37,167.81,411.33Z"/><path class="cls-2" d="M243.64,385.51l-4.18-.22c.07-1.46.19-3,.3-4.48.35-4.63.72-9.43-.2-12.14l4-1.34c1.19,3.52.81,8.51.41,13.8C243.82,382.6,243.71,384.08,243.64,385.51Z"/><path class="cls-2" d="M250.3,385.63l-.23-2.08c-.74-6.58-1.44-12.79.45-16.5l3.73,1.9c-1.32,2.59-.63,8.72,0,14.13l.24,2.09Z"/><rect class="cls-2" x="241.55" y="374.61" width="10.84" height="4.19"/><path class="cls-2" d="M170.42,386.25c-4,0-4.44-.46-4.89-.9-.6-.6-1.34-1.34-.63-9.17-.69-8.33,0-9,.62-9.65s1.31-1.33,12.45-.62l-.26,4.18c-3.22-.21-7-.34-8.9-.27,0,1.45.09,4,.28,6.19v.38a55.62,55.62,0,0,0-.28,5.64c1.88.07,5.68-.06,8.9-.26l.26,4.17C174.58,386.16,172.16,386.25,170.42,386.25ZM168.88,383Zm-1.1-13.11Zm1.11-1.09"/><rect class="cls-2" x="167" y="373.99" width="7.88" height="4.19"/><path class="cls-2" d="M205.84,361.79l-.72,0c-3.44-.26-9.19-2.53-9.19-14.81h4.18c0,4.65.92,10.26,5.27,10.63s9-3.73,9.18-5c.06-1-1.44-5.92-2.53-9.48-3.78-12.29-5.05-17.49-2.39-19.43l2.47,3.38a1,1,0,0,0,.35-.43c-.57,1.76,2.12,10.54,3.57,15.25,2.09,6.79,2.91,9.72,2.67,11.34C218.13,357,211.55,361.79,205.84,361.79Z"/><path class="cls-2" d="M209,429.44c-6.25,0-11.88-2.13-15.44-5.84a15.11,15.11,0,0,1-4.18-11.33c.42-10.28,6.45-20.47,18.92-20.28h0c10.11.21,20.31,6.37,20.31,19.66C228.63,423.12,221.66,429.44,209,429.44Zm-1.16-33.26c-10,0-13.95,8.36-14.27,16.26a10.85,10.85,0,0,0,3,8.26c2.78,2.89,7.3,4.55,12.42,4.55,10.24,0,15.44-4.58,15.44-13.6,0-11.17-8.74-15.31-16.22-15.47Z"/><path class="cls-2" d="M211.3,327.43c-5.88,0-11.82-.69-13.86-1.89l2.13-3.61c2.68,1.59,19.36,1.92,22.57,0l2.14,3.59C222.08,326.85,216.72,327.43,211.3,327.43Z"/></g></svg>